<svg xmlns="http://www.w3.org/2000/svg" xmlns:xlink="http://www.w3.org/1999/xlink" width="848" height="928.4"><rect width="848" height="928.4" rx="5" ry="5" class="a"/><svg y="0%" x="0%"><circle cx="20" cy="20" r="6" fill="#ff5f58"/><circle cx="40" cy="20" r="6" fill="#ffbd2e"/><circle cx="60" cy="20" r="6" fill="#18c132"/></svg><svg height="868.4" viewBox="0 0 80 86.84" width="800" x="19" xmlns="http://www.w3.org/2000/svg" xmlns:xlink="http://www.w3.org/1999/xlink" y="50"><style>@keyframes n{0%{transform:translateX(0)}.07%{transform:translateX(-80px)}4.92%{transform:translateX(-160px)}5.79%{transform:translateX(-240px)}6.23%{transform:translateX(-320px)}6.68%{transform:translateX(-400px)}7.12%{transform:translateX(-480px)}7.57%{transform:translateX(-560px)}8.01%{transform:translateX(-640px)}8.45%{transform:translateX(-720px)}8.89%{transform:translateX(-800px)}9.32%{transform:translateX(-880px)}11.74%{transform:translateX(-960px)}13.68%{transform:translateX(-1040px)}13.7%{transform:translateX(-1120px)}23.34%{transform:translateX(-1200px)}23.37%{transform:translateX(-1280px)}24.25%{transform:translateX(-1360px)}24.7%{transform:translateX(-1440px)}27.12%{transform:translateX(-1520px)}27.14%{transform:translateX(-1600px)}27.17%{transform:translateX(-1680px)}27.21%{transform:translateX(-1760px)}32.08%{transform:translateX(-1840px)}32.97%{transform:translateX(-1920px)}33.41%{transform:translateX(-2000px)}33.86%{transform:translateX(-2080px)}34.29%{transform:translateX(-2160px)}34.73%{transform:translateX(-2240px)}35.18%{transform:translateX(-2320px)}35.61%{transform:translateX(-2400px)}36.06%{transform:translateX(-2480px)}36.5%{transform:translateX(-2560px)}36.94%{transform:translateX(-2640px)}37.37%{transform:translateX(-2720px)}38.24%{transform:translateX(-2800px)}38.68%{transform:translateX(-2880px)}39.12%{transform:translateX(-2960px)}39.55%{transform:translateX(-3040px)}39.99%{transform:translateX(-3120px)}40.42%{transform:translateX(-3200px)}40.86%{transform:translateX(-3280px)}41.3%{transform:translateX(-3360px)}41.74%{transform:translateX(-3440px)}42.6%{transform:translateX(-3520px)}43.04%{transform:translateX(-3600px)}45.46%{transform:translateX(-3680px)}46.31%{transform:translateX(-3760px)}46.32%{transform:translateX(-3840px)}46.34%{transform:translateX(-3920px)}56%{transform:translateX(-4000px)}56.02%{transform:translateX(-4080px)}56.91%{transform:translateX(-4160px)}57.34%{transform:translateX(-4240px)}59.76%{transform:translateX(-4320px)}59.77%{transform:translateX(-4400px)}59.79%{transform:translateX(-4480px)}59.81%{transform:translateX(-4560px)}64.65%{transform:translateX(-4640px)}65.52%{transform:translateX(-4720px)}65.96%{transform:translateX(-4800px)}66.41%{transform:translateX(-4880px)}66.84%{transform:translateX(-4960px)}67.28%{transform:translateX(-5040px)}67.72%{transform:translateX(-5120px)}68.16%{transform:translateX(-5200px)}68.6%{transform:translateX(-5280px)}69.05%{transform:translateX(-5360px)}69.49%{transform:translateX(-5440px)}70.37%{transform:translateX(-5520px)}70.81%{transform:translateX(-5600px)}71.24%{transform:translateX(-5680px)}71.67%{transform:translateX(-5760px)}72.12%{transform:translateX(-5840px)}74.56%{transform:translateX(-5920px)}75.84%{transform:translateX(-6080px)}75.87%{transform:translateX(-6160px)}85.54%{transform:translateX(-6240px)}to{transform:translateX(-6320px)}}.a{fill:#161719}.f,.g,.h{fill:#c5c8c6;white-space:pre}.g,.h{fill:#96cbfe}.h{fill:#87c38a}.i{fill:#b9b6fc}.i,.j,.k{white-space:pre}.j{fill:#87c38a;font-weight:700}.k{fill:#85befd}</style><g font-family="Monaco,Consolas,Menlo,'Bitstream Vera Sans Mono','Powerline Symbols',monospace" font-size="1.67"><defs><symbol id="1"><text y="1.67" class="f">▶</text></symbol><symbol id="2"><text y="1.67" class="f">▶</text><text x="2.004" y="1.67" class="f">ru</text></symbol><symbol id="3"><text y="1.67" class="f">▶</text><text x="2.004" y="1.67" class="f">rurl</text></symbol><symbol id="4"><text y="1.67" class="f">▶</text><text x="2.004" y="1.67" class="f">rurl</text><text x="7.014" y="1.67" class="f">h</text></symbol><symbol id="5"><text y="1.67" class="f">▶</text><text x="2.004" y="1.67" class="f">rurl</text><text x="7.014" y="1.67" class="f">htt</text></symbol><symbol id="6"><text y="1.67" class="f">▶</text><text x="2.004" y="1.67" class="f">rurl</text><text x="7.014" y="1.67" class="f">httpb</text></symbol><symbol id="7"><text y="1.67" class="f">▶</text><text x="2.004" y="1.67" class="f">rurl</text><text x="7.014" y="1.67" class="f">httpbin</text></symbol><symbol id="8"><text y="1.67" class="f">▶</text><text x="2.004" y="1.67" class="f">rurl</text><text x="7.014" y="1.67" class="f">httpbin.o</text></symbol><symbol id="9"><text y="1.67" class="f">▶</text><text x="2.004" y="1.67" class="f">rurl</text><text x="7.014" y="1.67" class="f">httpbin.org</text></symbol><symbol id="10"><text y="1.67" class="f">▶</text><text x="2.004" y="1.67" class="f">rurl</text><text x="7.014" y="1.67" class="f">httpbin.org/get</text></symbol><symbol id="11"><text y="1.67" class="f">{</text></symbol><symbol id="12"><text x="2.004" y="1.67" class="g">&quot;args&quot;</text><text x="8.016" y="1.67" class="f">:</text><text x="10.02" y="1.67" class="f">{},</text></symbol><symbol id="13"><text x="2.004" y="1.67" class="g">&quot;headers&quot;</text><text x="11.022" y="1.67" class="f">:</text><text x="13.026" y="1.67" class="f">{</text></symbol><symbol id="14"><text x="4.008" y="1.67" class="g">&quot;Accept&quot;</text><text x="12.024" y="1.67" class="f">:</text><text x="14.028" y="1.67" class="h">&quot;*/*&quot;</text><text x="19.038" y="1.67" class="f">,</text></symbol><symbol id="15"><text x="4.008" y="1.67" class="g">&quot;Host&quot;</text><text x="10.02" y="1.67" class="f">:</text><text x="12.024" y="1.67" class="h">&quot;httpbin.org&quot;</text><text x="25.05" y="1.67" class="f">,</text></symbol><symbol id="16"><text x="4.008" y="1.67" class="g">&quot;User-Agent&quot;</text><text x="16.032" y="1.67" class="f">:</text><text x="18.036" y="1.67" class="h">&quot;rurl/0.1.1</text><text x="30.06" y="1.67" class="h">https://github.com/twigly/rurl&quot;</text><text x="61.122" y="1.67" class="f">,</text></symbol><symbol id="17"><text x="4.008" y="1.67" class="g">&quot;X-Amzn-Trace-Id&quot;</text><text x="21.042" y="1.67" class="f">:</text><text x="23.046" y="1.67" class="h">&quot;Root=1-61fc3cfc-3e31c4e509874eed648b6f93&quot;</text></symbol><symbol id="18"><text x="2.004" y="1.67" class="f">},</text></symbol><symbol id="19"><text x="2.004" y="1.67" class="g">&quot;origin&quot;</text><text x="10.02" y="1.67" class="f">:</text><text x="12.024" y="1.67" class="h">&quot;92.28.243.110&quot;</text><text x="27.054" y="1.67" class="f">,</text></symbol><symbol id="20"><text x="2.004" y="1.67" class="g">&quot;url&quot;</text><text x="7.014" y="1.67" class="f">:</text><text x="9.018" y="1.67" class="h">&quot;http://httpbin.org/get&quot;</text></symbol><symbol id="21"><text y="1.67" class="f">}</text></symbol><symbol id="22"><text y="1.67" class="f">▶</text><text x="2.004" y="1.67" class="f">c</text></symbol><symbol id="23"><text y="1.67" class="f">▶</text><text x="2.004" y="1.67" class="f">cle</text></symbol><symbol id="24"><text y="1.67" class="f">▶</text><text x="2.004" y="1.67" class="f">clear</text></symbol><symbol id="25"><text y="1.67" class="f">▶</text><text x="2.004" y="1.67" class="f">rurl</text><text x="7.014" y="1.67" class="f">httpbin.org/anything</text><text x="28.056" y="1.67" class="f">json-key1=value1</text><text x="45.09" y="1.67" class="f">-uhsd</text></symbol><symbol id="26"><text y="1.67" class="i">&gt;</text><text x="2.004" y="1.67" class="i">POST</text><text x="7.014" y="1.67" class="i">http://httpbin.org/anything</text></symbol><symbol id="27"><text y="1.67" class="h">&lt;</text><text x="2.004" y="1.67" class="j">HTTP/1.1</text><text x="11.022" y="1.67" class="j">200</text><text x="15.03" y="1.67" class="j">OK</text></symbol><symbol id="28"><text y="1.67" class="h">&lt;</text><text x="2.004" y="1.67" class="h">date:</text><text x="8.016" y="1.67" class="f">Thu,</text><text x="13.026" y="1.67" class="f">03</text><text x="16.032" y="1.67" class="f">Feb</text><text x="20.04" y="1.67" class="f">2022</text><text x="25.05" y="1.67" class="f">20:37:23</text><text x="34.068" y="1.67" class="f">GMT</text></symbol><symbol id="29"><text y="1.67" class="h">&lt;</text><text x="2.004" y="1.67" class="h">content-type:</text><text x="16.032" y="1.67" class="f">application/json</text></symbol><symbol id="30"><text y="1.67" class="h">&lt;</text><text x="2.004" y="1.67" class="h">content-length:</text><text x="18.036" y="1.67" class="f">509</text></symbol><symbol id="31"><text y="1.67" class="h">&lt;</text><text x="2.004" y="1.67" class="h">connection:</text><text x="14.028" y="1.67" class="f">keep-alive</text></symbol><symbol id="32"><text y="1.67" class="h">&lt;</text><text x="2.004" y="1.67" class="h">server:</text><text x="10.02" y="1.67" class="f">gunicorn/19.9.0</text></symbol><symbol id="33"><text y="1.67" class="h">&lt;</text><text x="2.004" y="1.67" class="h">access-control-allow-origin:</text><text x="31.062" y="1.67" class="f">*</text></symbol><symbol id="34"><text y="1.67" class="h">&lt;</text><text x="2.004" y="1.67" class="h">access-control-allow-credentials:</text><text x="36.072" y="1.67" class="f">true</text></symbol><symbol id="35"><text x="2.004" y="1.67" class="g">&quot;data&quot;</text><text x="8.016" y="1.67" class="f">:</text><text x="10.02" y="1.67" class="h">&quot;{\&quot;json-key1\&quot;:\&quot;value1\&quot;}&quot;</text><text x="38.076" y="1.67" class="f">,</text></symbol><symbol id="36"><text x="2.004" y="1.67" class="g">&quot;files&quot;</text><text x="9.018" y="1.67" class="f">:</text><text x="11.022" y="1.67" class="f">{},</text></symbol><symbol id="37"><text x="2.004" y="1.67" class="g">&quot;form&quot;</text><text x="8.016" y="1.67" class="f">:</text><text x="10.02" y="1.67" class="f">{},</text></symbol><symbol id="38"><text x="4.008" y="1.67" class="g">&quot;Accept&quot;</text><text x="12.024" y="1.67" class="f">:</text><text x="14.028" y="1.67" class="h">&quot;application/json&quot;</text><text x="32.064" y="1.67" class="f">,</text></symbol><symbol id="39"><text x="4.008" y="1.67" class="g">&quot;Content-Length&quot;</text><text x="20.04" y="1.67" class="f">:</text><text x="22.044" y="1.67" class="h">&quot;22&quot;</text><text x="26.052" y="1.67" class="f">,</text></symbol><symbol id="40"><text x="4.008" y="1.67" class="g">&quot;Content-Type&quot;</text><text x="18.036" y="1.67" class="f">:</text><text x="20.04" y="1.67" class="h">&quot;application/json&quot;</text><text x="38.076" y="1.67" class="f">,</text></symbol><symbol id="41"><text x="4.008" y="1.67" class="g">&quot;X-Amzn-Trace-Id&quot;</text><text x="21.042" y="1.67" class="f">:</text><text x="23.046" y="1.67" class="h">&quot;Root=1-61fc3d03-0cdb3f55510289312b4f9d1e&quot;</text></symbol><symbol id="42"><text x="2.004" y="1.67" class="g">&quot;json&quot;</text><text x="8.016" y="1.67" class="f">:</text><text x="10.02" y="1.67" class="f">{</text></symbol><symbol id="43"><text x="4.008" y="1.67" class="g">&quot;json-key1&quot;</text><text x="15.03" y="1.67" class="f">:</text><text x="17.034" y="1.67" class="h">&quot;value1&quot;</text></symbol><symbol id="44"><text x="2.004" y="1.67" class="g">&quot;method&quot;</text><text x="10.02" y="1.67" class="f">:</text><text x="12.024" y="1.67" class="h">&quot;POST&quot;</text><text x="18.036" y="1.67" class="f">,</text></symbol><symbol id="45"><text x="2.004" y="1.67" class="g">&quot;url&quot;</text><text x="7.014" y="1.67" class="f">:</text><text x="9.018" y="1.67" class="h">&quot;http://httpbin.org/anything&quot;</text></symbol><symbol id="46"><text y="1.67" class="f">▶</text><text x="2.004" y="1.67" class="f">rurl</text><text x="7.014" y="1.67" class="f">httpbin.org/status/418</text><text x="30.06" y="1.67" class="f">-uhsd</text></symbol><symbol id="47"><text y="1.67" class="i">&gt;</text><text x="2.004" y="1.67" class="i">GET</text><text x="6.012" y="1.67" class="i">http://httpbin.org/status/418</text></symbol><symbol id="48"><text y="1.67" class="h">&lt;</text><text x="2.004" y="1.67" class="j">HTTP/1.1</text><text x="11.022" y="1.67" class="j">418</text><text x="15.03" y="1.67" class="j">I&apos;m</text><text x="19.038" y="1.67" class="j">a</text><text x="21.042" y="1.67" class="j">teapot</text></symbol><symbol id="49"><text y="1.67" class="h">&lt;</text><text x="2.004" y="1.67" class="h">date:</text><text x="8.016" y="1.67" class="f">Thu,</text><text x="13.026" y="1.67" class="f">03</text><text x="16.032" y="1.67" class="f">Feb</text><text x="20.04" y="1.67" class="f">2022</text><text x="25.05" y="1.67" class="f">20:37:29</text><text x="34.068" y="1.67" class="f">GMT</text></symbol><symbol id="50"><text y="1.67" class="h">&lt;</text><text x="2.004" y="1.67" class="h">content-length:</text><text x="18.036" y="1.67" class="f">135</text></symbol><symbol id="51"><text y="1.67" class="k">&lt;</text><text x="2.004" y="1.67" class="k">x-more-info:</text><text x="15.03" y="1.67" class="f">http://tools.ietf.org/html/rfc2324</text></symbol><symbol id="52"><text x="4.008" y="1.67" class="f">-=[</text><text x="8.016" y="1.67" class="f">teapot</text><text x="15.03" y="1.67" class="f">]=-</text></symbol><symbol id="53"><text x="7.014" y="1.67" class="f">_...._</text></symbol><symbol id="54"><text x="5.01" y="1.67" class="f">.&apos;</text><text x="9.018" y="1.67" class="f">_</text><text x="11.022" y="1.67" class="f">_</text><text x="13.026" y="1.67" class="f">`.</text></symbol><symbol id="55"><text x="4.008" y="1.67" class="f">|</text><text x="6.012" y="1.67" class="f">.&quot;`</text><text x="10.02" y="1.67" class="f">^</text><text x="12.024" y="1.67" class="f">`&quot;.</text><text x="16.032" y="1.67" class="f">_,</text></symbol><symbol id="56"><text x="4.008" y="1.67" class="f">\_;`&quot;---&quot;`|//</text></symbol><symbol id="57"><text x="6.012" y="1.67" class="f">|</text><text x="14.028" y="1.67" class="f">;/</text></symbol><symbol id="58"><text x="6.012" y="1.67" class="f">\_</text><text x="13.026" y="1.67" class="f">_/</text></symbol><symbol id="59"><text x="8.016" y="1.67" class="f">`&quot;&quot;&quot;`</text></symbol><symbol id="a"><path fill="transparent" d="M0 0h80v41H0z"/></symbol><symbol id="b"><path fill="#d0d0d0" d="M0 0h1.102v2.171H0z"/></symbol></defs><path class="a" d="M0 0h80v86.84H0z"/><g style="animation-duration:20.791699s;animation-iteration-count:infinite;animation-name:n;animation-timing-function:steps(1,end)"><svg width="6400"><svg><use xlink:href="#a"/><use xlink:href="#b" x="-.004"/></svg><svg x="80"><use xlink:href="#a"/><use xlink:href="#b" x="1.996"/><use xlink:href="#1"/></svg><svg x="160"><use xlink:href="#a"/><use xlink:href="#b" x="3.996"/><use xlink:href="#2"/></svg><svg x="240"><use xlink:href="#a"/><use xlink:href="#b" x="5.996"/><use xlink:href="#3"/></svg><svg x="320"><use xlink:href="#a"/><use xlink:href="#b" x="7.996"/><use xlink:href="#4"/></svg><svg x="400"><use xlink:href="#a"/><use xlink:href="#b" x="9.996"/><use xlink:href="#5"/></svg><svg x="480"><use xlink:href="#a"/><use xlink:href="#b" x="11.996"/><use xlink:href="#6"/></svg><svg x="560"><use xlink:href="#a"/><use xlink:href="#b" x="13.996"/><use xlink:href="#7"/></svg><svg x="640"><use xlink:href="#a"/><use xlink:href="#b" x="15.996"/><use xlink:href="#8"/></svg><svg x="720"><use xlink:href="#a"/><use xlink:href="#b" x="17.996"/><use xlink:href="#9"/></svg><svg x="800"><use xlink:href="#a"/><use xlink:href="#b" x="19.996"/><text y="1.67" class="f">▶</text><text x="2.004" y="1.67" class="f">rurl</text><text x="7.014" y="1.67" class="f">httpbin.org/g</text></svg><svg x="880"><use xlink:href="#a"/><use xlink:href="#b" x="21.996"/><use xlink:href="#10"/></svg><svg x="960"><use xlink:href="#a"/><use xlink:href="#b" x="-.004" y="2.146"/><use xlink:href="#10"/></svg><svg x="1040"><use xlink:href="#a"/><use xlink:href="#b" x="-.004" y="26.027"/><use xlink:href="#10"/><use xlink:href="#11" y="2.171"/><use xlink:href="#12" y="4.342"/><use xlink:href="#13" y="6.513"/><use xlink:href="#14" y="8.684"/><use xlink:href="#15" y="10.855"/><use xlink:href="#16" y="13.026"/><use xlink:href="#17" y="15.197"/><use xlink:href="#18" y="17.368"/><use xlink:href="#19" y="19.539"/><use xlink:href="#20" y="21.71"/><use xlink:href="#21" y="23.881"/></svg><svg x="1120"><use xlink:href="#a"/><use xlink:href="#b" x="-.004" y="28.198"/><use xlink:href="#10"/><use xlink:href="#11" y="2.171"/><use xlink:href="#12" y="4.342"/><use xlink:href="#13" y="6.513"/><use xlink:href="#14" y="8.684"/><use xlink:href="#15" y="10.855"/><use xlink:href="#16" y="13.026"/><use xlink:href="#17" y="15.197"/><use xlink:href="#18" y="17.368"/><use xlink:href="#19" y="19.539"/><use xlink:href="#20" y="21.71"/><use xlink:href="#21" y="23.881"/></svg><svg x="1200"><use xlink:href="#a"/><use xlink:href="#b" x="1.996" y="28.198"/><use xlink:href="#10"/><use xlink:href="#11" y="2.171"/><use xlink:href="#12" y="4.342"/><use xlink:href="#13" y="6.513"/><use xlink:href="#14" y="8.684"/><use xlink:href="#15" y="10.855"/><use xlink:href="#16" y="13.026"/><use xlink:href="#17" y="15.197"/><use xlink:href="#18" y="17.368"/><use xlink:href="#19" y="19.539"/><use xlink:href="#20" y="21.71"/><use xlink:href="#21" y="23.881"/><use xlink:href="#1" y="28.223"/></svg><svg x="1280"><use xlink:href="#a"/><use xlink:href="#b" x="2.996" y="28.198"/><use xlink:href="#10"/><use xlink:href="#11" y="2.171"/><use xlink:href="#12" y="4.342"/><use xlink:href="#13" y="6.513"/><use xlink:href="#14" y="8.684"/><use xlink:href="#15" y="10.855"/><use xlink:href="#16" y="13.026"/><use xlink:href="#17" y="15.197"/><use xlink:href="#18" y="17.368"/><use xlink:href="#19" y="19.539"/><use xlink:href="#20" y="21.71"/><use xlink:href="#21" y="23.881"/><use xlink:href="#22" y="28.223"/></svg><svg x="1360"><use xlink:href="#a"/><use xlink:href="#b" x="4.996" y="28.198"/><use xlink:href="#10"/><use xlink:href="#11" y="2.171"/><use xlink:href="#12" y="4.342"/><use xlink:href="#13" y="6.513"/><use xlink:href="#14" y="8.684"/><use xlink:href="#15" y="10.855"/><use xlink:href="#16" y="13.026"/><use xlink:href="#17" y="15.197"/><use xlink:href="#18" y="17.368"/><use xlink:href="#19" y="19.539"/><use xlink:href="#20" y="21.71"/><use xlink:href="#21" y="23.881"/><use xlink:href="#23" y="28.223"/></svg><svg x="1440"><use xlink:href="#a"/><use xlink:href="#b" x="6.996" y="28.198"/><use xlink:href="#10"/><use xlink:href="#11" y="2.171"/><use xlink:href="#12" y="4.342"/><use xlink:href="#13" y="6.513"/><use xlink:href="#14" y="8.684"/><use xlink:href="#15" y="10.855"/><use xlink:href="#16" y="13.026"/><use xlink:href="#17" y="15.197"/><use xlink:href="#18" y="17.368"/><use xlink:href="#19" y="19.539"/><use xlink:href="#20" y="21.71"/><use xlink:href="#21" y="23.881"/><use xlink:href="#24" y="28.223"/></svg><svg x="1520"><use xlink:href="#a"/><use xlink:href="#b" x="-.004" y="30.369"/><use xlink:href="#10"/><use xlink:href="#11" y="2.171"/><use xlink:href="#12" y="4.342"/><use xlink:href="#13" y="6.513"/><use xlink:href="#14" y="8.684"/><use xlink:href="#15" y="10.855"/><use xlink:href="#16" y="13.026"/><use xlink:href="#17" y="15.197"/><use xlink:href="#18" y="17.368"/><use xlink:href="#19" y="19.539"/><use xlink:href="#20" y="21.71"/><use xlink:href="#21" y="23.881"/><use xlink:href="#24" y="28.223"/></svg><svg x="1600"><use xlink:href="#a"/><use xlink:href="#b" x="-.004"/></svg><svg x="1680"><use xlink:href="#a"/><use xlink:href="#b" x="-.004" y="2.146"/></svg><svg x="1760"><use xlink:href="#a"/><use xlink:href="#b" x="1.996" y="2.146"/><use xlink:href="#1" y="2.171"/></svg><svg x="1840"><use xlink:href="#a"/><use xlink:href="#b" x="3.996" y="2.146"/><use xlink:href="#2" y="2.171"/></svg><svg x="1920"><use xlink:href="#a"/><use xlink:href="#b" x="5.996" y="2.146"/><use xlink:href="#3" y="2.171"/></svg><svg x="2000"><use xlink:href="#a"/><use xlink:href="#b" x="7.996" y="2.146"/><use xlink:href="#4" y="2.171"/></svg><svg x="2080"><use xlink:href="#a"/><use xlink:href="#b" x="9.996" y="2.146"/><use xlink:href="#5" y="2.171"/></svg><svg x="2160"><use xlink:href="#a"/><use xlink:href="#b" x="11.996" y="2.146"/><use xlink:href="#6" y="2.171"/></svg><svg x="2240"><use xlink:href="#a"/><use xlink:href="#b" x="13.996" y="2.146"/><use xlink:href="#7" y="2.171"/></svg><svg x="2320"><use xlink:href="#a"/><use xlink:href="#b" x="15.996" y="2.146"/><use xlink:href="#8" y="2.171"/></svg><svg x="2400"><use xlink:href="#a"/><use xlink:href="#b" x="17.996" y="2.146"/><use xlink:href="#9" y="2.171"/></svg><svg x="2480"><use xlink:href="#a"/><use xlink:href="#b" x="19.996" y="2.146"/><text y="3.841" class="f">▶</text><text x="2.004" y="3.841" class="f">rurl</text><text x="7.014" y="3.841" class="f">httpbin.org/a</text></svg><svg x="2560"><use xlink:href="#a"/><use xlink:href="#b" x="21.996" y="2.146"/><text y="3.841" class="f">▶</text><text x="2.004" y="3.841" class="f">rurl</text><text x="7.014" y="3.841" class="f">httpbin.org/any</text></svg><svg x="2640"><use xlink:href="#a"/><use xlink:href="#b" x="24.996" y="2.146"/><text y="3.841" class="f">▶</text><text x="2.004" y="3.841" class="f">rurl</text><text x="7.014" y="3.841" class="f">httpbin.org/anythi</text></svg><svg x="2720"><use xlink:href="#a"/><use xlink:href="#b" x="26.996" y="2.146"/><text y="3.841" class="f">▶</text><text x="2.004" y="3.841" class="f">rurl</text><text x="7.014" y="3.841" class="f">httpbin.org/anything</text></svg><svg x="2800"><use xlink:href="#a"/><use xlink:href="#b" x="28.996" y="2.146"/><text y="3.841" class="f">▶</text><text x="2.004" y="3.841" class="f">rurl</text><text x="7.014" y="3.841" class="f">httpbin.org/anything</text><text x="28.056" y="3.841" class="f">j</text></svg><svg x="2880"><use xlink:href="#a"/><use xlink:href="#b" x="30.996" y="2.146"/><text y="3.841" class="f">▶</text><text x="2.004" y="3.841" class="f">rurl</text><text x="7.014" y="3.841" class="f">httpbin.org/anything</text><text x="28.056" y="3.841" class="f">jso</text></svg><svg x="2960"><use xlink:href="#a"/><use xlink:href="#b" x="32.996" y="2.146"/><text y="3.841" class="f">▶</text><text x="2.004" y="3.841" class="f">rurl</text><text x="7.014" y="3.841" class="f">httpbin.org/anything</text><text x="28.056" y="3.841" class="f">json-</text></svg><svg x="3040"><use xlink:href="#a"/><use xlink:href="#b" x="34.996" y="2.146"/><text y="3.841" class="f">▶</text><text x="2.004" y="3.841" class="f">rurl</text><text x="7.014" y="3.841" class="f">httpbin.org/anything</text><text x="28.056" y="3.841" class="f">json-ke</text></svg><svg x="3120"><use xlink:href="#a"/><use xlink:href="#b" x="36.996" y="2.146"/><text y="3.841" class="f">▶</text><text x="2.004" y="3.841" class="f">rurl</text><text x="7.014" y="3.841" class="f">httpbin.org/anything</text><text x="28.056" y="3.841" class="f">json-key1</text></svg><svg x="3200"><use xlink:href="#a"/><use xlink:href="#b" x="38.996" y="2.146"/><text y="3.841" class="f">▶</text><text x="2.004" y="3.841" class="f">rurl</text><text x="7.014" y="3.841" class="f">httpbin.org/anything</text><text x="28.056" y="3.841" class="f">json-key1=v</text></svg><svg x="3280"><use xlink:href="#a"/><use xlink:href="#b" x="40.996" y="2.146"/><text y="3.841" class="f">▶</text><text x="2.004" y="3.841" class="f">rurl</text><text x="7.014" y="3.841" class="f">httpbin.org/anything</text><text x="28.056" y="3.841" class="f">json-key1=val</text></svg><svg x="3360"><use xlink:href="#a"/><use xlink:href="#b" x="42.996" y="2.146"/><text y="3.841" class="f">▶</text><text x="2.004" y="3.841" class="f">rurl</text><text x="7.014" y="3.841" class="f">httpbin.org/anything</text><text x="28.056" y="3.841" class="f">json-key1=value</text></svg><svg x="3440"><use xlink:href="#a"/><use xlink:href="#b" x="45.996" y="2.146"/><text y="3.841" class="f">▶</text><text x="2.004" y="3.841" class="f">rurl</text><text x="7.014" y="3.841" class="f">httpbin.org/anything</text><text x="28.056" y="3.841" class="f">json-key1=value1</text><text x="45.09" y="3.841" class="f">-</text></svg><svg x="3520"><use xlink:href="#a"/><use xlink:href="#b" x="47.996" y="2.146"/><text y="3.841" class="f">▶</text><text x="2.004" y="3.841" class="f">rurl</text><text x="7.014" y="3.841" class="f">httpbin.org/anything</text><text x="28.056" y="3.841" class="f">json-key1=value1</text><text x="45.09" y="3.841" class="f">-uh</text></svg><svg x="3600"><use xlink:href="#a"/><use xlink:href="#b" x="49.996" y="2.146"/><use xlink:href="#25" y="2.171"/></svg><svg x="3680"><use xlink:href="#a"/><use xlink:href="#b" x="-.004" y="4.317"/><use xlink:href="#25" y="2.171"/></svg><svg x="3760"><use xlink:href="#a"/><use xlink:href="#b" x="-.004" y="28.198"/><use xlink:href="#25" y="2.171"/><use xlink:href="#26" y="4.342"/><use xlink:href="#27" y="8.684"/><use xlink:href="#28" y="10.855"/><use xlink:href="#29" y="13.026"/><use xlink:href="#30" y="15.197"/><use xlink:href="#31" y="17.368"/><use xlink:href="#32" y="19.539"/><use xlink:href="#33" y="21.71"/><use xlink:href="#34" y="23.881"/></svg><svg x="3840"><use xlink:href="#a"/><use xlink:href="#b" x="-.004" y="71.618"/><use xlink:href="#25" y="2.171"/><use xlink:href="#26" y="4.342"/><use xlink:href="#27" y="8.684"/><use xlink:href="#28" y="10.855"/><use xlink:href="#29" y="13.026"/><use xlink:href="#30" y="15.197"/><use xlink:href="#31" y="17.368"/><use xlink:href="#32" y="19.539"/><use xlink:href="#33" y="21.71"/><use xlink:href="#34" y="23.881"/><use xlink:href="#11" y="28.223"/><use xlink:href="#12" y="30.394"/><use xlink:href="#35" y="32.565"/><use xlink:href="#36" y="34.736"/><use xlink:href="#37" y="36.907"/><use xlink:href="#13" y="39.078"/><use xlink:href="#38" y="41.249"/><use xlink:href="#39" y="43.42"/><use xlink:href="#40" y="45.591"/><use xlink:href="#15" y="47.762"/><use xlink:href="#16" y="49.933"/><use xlink:href="#41" y="52.104"/><use xlink:href="#18" y="54.275"/><use xlink:href="#42" y="56.446"/><use xlink:href="#43" y="58.617"/><use xlink:href="#18" y="60.788"/><use xlink:href="#44" y="62.959"/><use xlink:href="#19" y="65.13"/><use xlink:href="#45" y="67.301"/><use xlink:href="#21" y="69.472"/></svg><svg x="3920"><use xlink:href="#a"/><use xlink:href="#b" x="-.004" y="73.789"/><use xlink:href="#25" y="2.171"/><use xlink:href="#26" y="4.342"/><use xlink:href="#27" y="8.684"/><use xlink:href="#28" y="10.855"/><use xlink:href="#29" y="13.026"/><use xlink:href="#30" y="15.197"/><use xlink:href="#31" y="17.368"/><use xlink:href="#32" y="19.539"/><use xlink:href="#33" y="21.71"/><use xlink:href="#34" y="23.881"/><use xlink:href="#11" y="28.223"/><use xlink:href="#12" y="30.394"/><use xlink:href="#35" y="32.565"/><use xlink:href="#36" y="34.736"/><use xlink:href="#37" y="36.907"/><use xlink:href="#13" y="39.078"/><use xlink:href="#38" y="41.249"/><use xlink:href="#39" y="43.42"/><use xlink:href="#40" y="45.591"/><use xlink:href="#15" y="47.762"/><use xlink:href="#16" y="49.933"/><use xlink:href="#41" y="52.104"/><use xlink:href="#18" y="54.275"/><use xlink:href="#42" y="56.446"/><use xlink:href="#43" y="58.617"/><use xlink:href="#18" y="60.788"/><use xlink:href="#44" y="62.959"/><use xlink:href="#19" y="65.13"/><use xlink:href="#45" y="67.301"/><use xlink:href="#21" y="69.472"/></svg><svg x="4000"><use xlink:href="#a"/><use xlink:href="#b" x="1.996" y="73.789"/><use xlink:href="#25" y="2.171"/><use xlink:href="#26" y="4.342"/><use xlink:href="#27" y="8.684"/><use xlink:href="#28" y="10.855"/><use xlink:href="#29" y="13.026"/><use xlink:href="#30" y="15.197"/><use xlink:href="#31" y="17.368"/><use xlink:href="#32" y="19.539"/><use xlink:href="#33" y="21.71"/><use xlink:href="#34" y="23.881"/><use xlink:href="#11" y="28.223"/><use xlink:href="#12" y="30.394"/><use xlink:href="#35" y="32.565"/><use xlink:href="#36" y="34.736"/><use xlink:href="#37" y="36.907"/><use xlink:href="#13" y="39.078"/><use xlink:href="#38" y="41.249"/><use xlink:href="#39" y="43.42"/><use xlink:href="#40" y="45.591"/><use xlink:href="#15" y="47.762"/><use xlink:href="#16" y="49.933"/><use xlink:href="#41" y="52.104"/><use xlink:href="#18" y="54.275"/><use xlink:href="#42" y="56.446"/><use xlink:href="#43" y="58.617"/><use xlink:href="#18" y="60.788"/><use xlink:href="#44" y="62.959"/><use xlink:href="#19" y="65.13"/><use xlink:href="#45" y="67.301"/><use xlink:href="#21" y="69.472"/><use xlink:href="#1" y="73.814"/></svg><svg x="4080"><use xlink:href="#a"/><use xlink:href="#b" x="2.996" y="73.789"/><use xlink:href="#25" y="2.171"/><use xlink:href="#26" y="4.342"/><use xlink:href="#27" y="8.684"/><use xlink:href="#28" y="10.855"/><use xlink:href="#29" y="13.026"/><use xlink:href="#30" y="15.197"/><use xlink:href="#31" y="17.368"/><use xlink:href="#32" y="19.539"/><use xlink:href="#33" y="21.71"/><use xlink:href="#34" y="23.881"/><use xlink:href="#11" y="28.223"/><use xlink:href="#12" y="30.394"/><use xlink:href="#35" y="32.565"/><use xlink:href="#36" y="34.736"/><use xlink:href="#37" y="36.907"/><use xlink:href="#13" y="39.078"/><use xlink:href="#38" y="41.249"/><use xlink:href="#39" y="43.42"/><use xlink:href="#40" y="45.591"/><use xlink:href="#15" y="47.762"/><use xlink:href="#16" y="49.933"/><use xlink:href="#41" y="52.104"/><use xlink:href="#18" y="54.275"/><use xlink:href="#42" y="56.446"/><use xlink:href="#43" y="58.617"/><use xlink:href="#18" y="60.788"/><use xlink:href="#44" y="62.959"/><use xlink:href="#19" y="65.13"/><use xlink:href="#45" y="67.301"/><use xlink:href="#21" y="69.472"/><use xlink:href="#22" y="73.814"/></svg><svg x="4160"><use xlink:href="#a"/><use xlink:href="#b" x="4.996" y="73.789"/><use xlink:href="#25" y="2.171"/><use xlink:href="#26" y="4.342"/><use xlink:href="#27" y="8.684"/><use xlink:href="#28" y="10.855"/><use xlink:href="#29" y="13.026"/><use xlink:href="#30" y="15.197"/><use xlink:href="#31" y="17.368"/><use xlink:href="#32" y="19.539"/><use xlink:href="#33" y="21.71"/><use xlink:href="#34" y="23.881"/><use xlink:href="#11" y="28.223"/><use xlink:href="#12" y="30.394"/><use xlink:href="#35" y="32.565"/><use xlink:href="#36" y="34.736"/><use xlink:href="#37" y="36.907"/><use xlink:href="#13" y="39.078"/><use xlink:href="#38" y="41.249"/><use xlink:href="#39" y="43.42"/><use xlink:href="#40" y="45.591"/><use xlink:href="#15" y="47.762"/><use xlink:href="#16" y="49.933"/><use xlink:href="#41" y="52.104"/><use xlink:href="#18" y="54.275"/><use xlink:href="#42" y="56.446"/><use xlink:href="#43" y="58.617"/><use xlink:href="#18" y="60.788"/><use xlink:href="#44" y="62.959"/><use xlink:href="#19" y="65.13"/><use xlink:href="#45" y="67.301"/><use xlink:href="#21" y="69.472"/><use xlink:href="#23" y="73.814"/></svg><svg x="4240"><use xlink:href="#a"/><use xlink:href="#b" x="6.996" y="73.789"/><use xlink:href="#25" y="2.171"/><use xlink:href="#26" y="4.342"/><use xlink:href="#27" y="8.684"/><use xlink:href="#28" y="10.855"/><use xlink:href="#29" y="13.026"/><use xlink:href="#30" y="15.197"/><use xlink:href="#31" y="17.368"/><use xlink:href="#32" y="19.539"/><use xlink:href="#33" y="21.71"/><use xlink:href="#34" y="23.881"/><use xlink:href="#11" y="28.223"/><use xlink:href="#12" y="30.394"/><use xlink:href="#35" y="32.565"/><use xlink:href="#36" y="34.736"/><use xlink:href="#37" y="36.907"/><use xlink:href="#13" y="39.078"/><use xlink:href="#38" y="41.249"/><use xlink:href="#39" y="43.42"/><use xlink:href="#40" y="45.591"/><use xlink:href="#15" y="47.762"/><use xlink:href="#16" y="49.933"/><use xlink:href="#41" y="52.104"/><use xlink:href="#18" y="54.275"/><use xlink:href="#42" y="56.446"/><use xlink:href="#43" y="58.617"/><use xlink:href="#18" y="60.788"/><use xlink:href="#44" y="62.959"/><use xlink:href="#19" y="65.13"/><use xlink:href="#45" y="67.301"/><use xlink:href="#21" y="69.472"/><use xlink:href="#24" y="73.814"/></svg><svg x="4320"><use xlink:href="#a"/><use xlink:href="#b" x="-.004" y="75.96"/><use xlink:href="#25" y="2.171"/><use xlink:href="#26" y="4.342"/><use xlink:href="#27" y="8.684"/><use xlink:href="#28" y="10.855"/><use xlink:href="#29" y="13.026"/><use xlink:href="#30" y="15.197"/><use xlink:href="#31" y="17.368"/><use xlink:href="#32" y="19.539"/><use xlink:href="#33" y="21.71"/><use xlink:href="#34" y="23.881"/><use xlink:href="#11" y="28.223"/><use xlink:href="#12" y="30.394"/><use xlink:href="#35" y="32.565"/><use xlink:href="#36" y="34.736"/><use xlink:href="#37" y="36.907"/><use xlink:href="#13" y="39.078"/><use xlink:href="#38" y="41.249"/><use xlink:href="#39" y="43.42"/><use xlink:href="#40" y="45.591"/><use xlink:href="#15" y="47.762"/><use xlink:href="#16" y="49.933"/><use xlink:href="#41" y="52.104"/><use xlink:href="#18" y="54.275"/><use xlink:href="#42" y="56.446"/><use xlink:href="#43" y="58.617"/><use xlink:href="#18" y="60.788"/><use xlink:href="#44" y="62.959"/><use xlink:href="#19" y="65.13"/><use xlink:href="#45" y="67.301"/><use xlink:href="#21" y="69.472"/><use xlink:href="#24" y="73.814"/></svg><svg x="4400"><use xlink:href="#a"/><use xlink:href="#b" x="-.004"/></svg><svg x="4480"><use xlink:href="#a"/><use xlink:href="#b" x="-.004" y="2.146"/></svg><svg x="4560"><use xlink:href="#a"/><use xlink:href="#b" x="1.996" y="2.146"/><use xlink:href="#1" y="2.171"/></svg><svg x="4640"><use xlink:href="#a"/><use xlink:href="#b" x="3.996" y="2.146"/><use xlink:href="#2" y="2.171"/></svg><svg x="4720"><use xlink:href="#a"/><use xlink:href="#b" x="5.996" y="2.146"/><use xlink:href="#3" y="2.171"/></svg><svg x="4800"><use xlink:href="#a"/><use xlink:href="#b" x="7.996" y="2.146"/><use xlink:href="#4" y="2.171"/></svg><svg x="4880"><use xlink:href="#a"/><use xlink:href="#b" x="9.996" y="2.146"/><use xlink:href="#5" y="2.171"/></svg><svg x="4960"><use xlink:href="#a"/><use xlink:href="#b" x="11.996" y="2.146"/><use xlink:href="#6" y="2.171"/></svg><svg x="5040"><use xlink:href="#a"/><use xlink:href="#b" x="13.996" y="2.146"/><use xlink:href="#7" y="2.171"/></svg><svg x="5120"><use xlink:href="#a"/><use xlink:href="#b" x="15.996" y="2.146"/><use xlink:href="#8" y="2.171"/></svg><svg x="5200"><use xlink:href="#a"/><use xlink:href="#b" x="17.996" y="2.146"/><use xlink:href="#9" y="2.171"/></svg><svg x="5280"><use xlink:href="#a"/><use xlink:href="#b" x="19.996" y="2.146"/><text y="3.841" class="f">▶</text><text x="2.004" y="3.841" class="f">rurl</text><text x="7.014" y="3.841" class="f">httpbin.org/s</text></svg><svg x="5360"><use xlink:href="#a"/><use xlink:href="#b" x="21.996" y="2.146"/><text y="3.841" class="f">▶</text><text x="2.004" y="3.841" class="f">rurl</text><text x="7.014" y="3.841" class="f">httpbin.org/sta</text></svg><svg x="5440"><use xlink:href="#a"/><use xlink:href="#b" x="24.996" y="2.146"/><text y="3.841" class="f">▶</text><text x="2.004" y="3.841" class="f">rurl</text><text x="7.014" y="3.841" class="f">httpbin.org/status</text></svg><svg x="5520"><use xlink:href="#a"/><use xlink:href="#b" x="26.996" y="2.146"/><text y="3.841" class="f">▶</text><text x="2.004" y="3.841" class="f">rurl</text><text x="7.014" y="3.841" class="f">httpbin.org/status/4</text></svg><svg x="5600"><use xlink:href="#a"/><use xlink:href="#b" x="28.996" y="2.146"/><text y="3.841" class="f">▶</text><text x="2.004" y="3.841" class="f">rurl</text><text x="7.014" y="3.841" class="f">httpbin.org/status/418</text></svg><svg x="5680"><use xlink:href="#a"/><use xlink:href="#b" x="30.996" y="2.146"/><text y="3.841" class="f">▶</text><text x="2.004" y="3.841" class="f">rurl</text><text x="7.014" y="3.841" class="f">httpbin.org/status/418</text><text x="30.06" y="3.841" class="f">-</text></svg><svg x="5760"><use xlink:href="#a"/><use xlink:href="#b" x="32.996" y="2.146"/><text y="3.841" class="f">▶</text><text x="2.004" y="3.841" class="f">rurl</text><text x="7.014" y="3.841" class="f">httpbin.org/status/418</text><text x="30.06" y="3.841" class="f">-uh</text></svg><svg x="5840"><use xlink:href="#a"/><use xlink:href="#b" x="34.996" y="2.146"/><use xlink:href="#46" y="2.171"/></svg><svg x="5920"><use xlink:href="#a"/><use xlink:href="#b" x="-.004" y="4.317"/><use xlink:href="#46" y="2.171"/></svg><svg x="6000"><use xlink:href="#a"/><use xlink:href="#b" x="-.004" y="28.198"/><use xlink:href="#46" y="2.171"/><use xlink:href="#47" y="4.342"/><use xlink:href="#48" y="8.684"/><use xlink:href="#49" y="10.855"/><use xlink:href="#50" y="13.026"/><use xlink:href="#31" y="15.197"/><use xlink:href="#32" y="17.368"/><use xlink:href="#51" y="19.539"/><use xlink:href="#33" y="21.71"/><use xlink:href="#34" y="23.881"/></svg><svg x="6080"><use xlink:href="#a"/><use xlink:href="#b" x="-.004" y="52.079"/><use xlink:href="#46" y="2.171"/><use xlink:href="#47" y="4.342"/><use xlink:href="#48" y="8.684"/><use xlink:href="#49" y="10.855"/><use xlink:href="#50" y="13.026"/><use xlink:href="#31" y="15.197"/><use xlink:href="#32" y="17.368"/><use xlink:href="#51" y="19.539"/><use xlink:href="#33" y="21.71"/><use xlink:href="#34" y="23.881"/><use xlink:href="#52" y="30.394"/><use xlink:href="#53" y="34.736"/><use xlink:href="#54" y="36.907"/><use xlink:href="#55" y="39.078"/><use xlink:href="#56" y="41.249"/><use xlink:href="#57" y="43.42"/><use xlink:href="#58" y="45.591"/><use xlink:href="#59" y="47.762"/></svg><svg x="6160"><use xlink:href="#a"/><use xlink:href="#b" x="-.004" y="54.25"/><use xlink:href="#46" y="2.171"/><use xlink:href="#47" y="4.342"/><use xlink:href="#48" y="8.684"/><use xlink:href="#49" y="10.855"/><use xlink:href="#50" y="13.026"/><use xlink:href="#31" y="15.197"/><use xlink:href="#32" y="17.368"/><use xlink:href="#51" y="19.539"/><use xlink:href="#33" y="21.71"/><use xlink:href="#34" y="23.881"/><use xlink:href="#52" y="30.394"/><use xlink:href="#53" y="34.736"/><use xlink:href="#54" y="36.907"/><use xlink:href="#55" y="39.078"/><use xlink:href="#56" y="41.249"/><use xlink:href="#57" y="43.42"/><use xlink:href="#58" y="45.591"/><use xlink:href="#59" y="47.762"/></svg><svg x="6240"><use xlink:href="#a"/><use xlink:href="#b" x="1.996" y="54.25"/><use xlink:href="#46" y="2.171"/><use xlink:href="#47" y="4.342"/><use xlink:href="#48" y="8.684"/><use xlink:href="#49" y="10.855"/><use xlink:href="#50" y="13.026"/><use xlink:href="#31" y="15.197"/><use xlink:href="#32" y="17.368"/><use xlink:href="#51" y="19.539"/><use xlink:href="#33" y="21.71"/><use xlink:href="#34" y="23.881"/><use xlink:href="#52" y="30.394"/><use xlink:href="#53" y="34.736"/><use xlink:href="#54" y="36.907"/><use xlink:href="#55" y="39.078"/><use xlink:href="#56" y="41.249"/><use xlink:href="#57" y="43.42"/><use xlink:href="#58" y="45.591"/><use xlink:href="#59" y="47.762"/><use xlink:href="#1" y="54.275"/></svg><svg x="6320"><use xlink:href="#a"/><use xlink:href="#b" x="-.004" y="56.421"/><use xlink:href="#46" y="2.171"/><use xlink:href="#47" y="4.342"/><use xlink:href="#48" y="8.684"/><use xlink:href="#49" y="10.855"/><use xlink:href="#50" y="13.026"/><use xlink:href="#31" y="15.197"/><use xlink:href="#32" y="17.368"/><use xlink:href="#51" y="19.539"/><use xlink:href="#33" y="21.71"/><use xlink:href="#34" y="23.881"/><use xlink:href="#52" y="30.394"/><use xlink:href="#53" y="34.736"/><use xlink:href="#54" y="36.907"/><use xlink:href="#55" y="39.078"/><use xlink:href="#56" y="41.249"/><use xlink:href="#57" y="43.42"/><use xlink:href="#58" y="45.591"/><use xlink:href="#59" y="47.762"/><use xlink:href="#1" y="54.275"/></svg></svg></g></g></svg></svg>